<?xml version="1.0" standalone="no"?>
<!DOCTYPE svg PUBLIC "-//W3C//DTD SVG 20010904//EN"
 "http://www.w3.org/TR/2001/REC-SVG-20010904/DTD/svg10.dtd">
<svg version="1.0" xmlns="http://www.w3.org/2000/svg"
 width="640.000000pt" height="640.000000pt" viewBox="0 0 640.000000 640.000000"
 preserveAspectRatio="xMidYMid meet">
<metadata>
Created by potrace 1.11, written by Peter Selinger 2001-2013
</metadata>
<g transform="translate(0.000000,640.000000) scale(0.100000,-0.100000)"
fill="#000000" stroke="none">
<path d="M3855 6381 c-87 -39 -283 -287 -390 -493 l-39 -76 79 -83 c285 -304
463 -636 556 -1038 10 -47 21 -98 23 -115 2 -17 7 -60 11 -96 11 -91 11 -89
16 -94 3 -3 110 100 239 229 l235 235 0 198 c0 170 -9 314 -20 332 -2 3 -6 23
-9 45 -17 108 -91 325 -152 448 -110 217 -318 482 -405 513 -49 18 -98 16
-144 -5z"/>
<path d="M5858 6115 c-2 -1 -41 -5 -88 -9 -93 -6 -187 -21 -238 -35 -18 -5
-36 -10 -40 -11 -119 -17 -397 -139 -550 -240 -66 -44 -82 -59 -79 -75 2 -11
18 -74 35 -140 45 -177 64 -323 66 -515 l2 -124 119 -2 c139 -1 236 -10 355
-30 47 -9 98 -18 113 -20 15 -3 65 -16 109 -30 45 -13 87 -24 94 -24 18 0 119
160 179 285 62 129 121 297 139 395 4 23 13 73 22 125 8 40 18 181 18 245 -1
125 -72 200 -196 204 -32 2 -59 2 -60 1z"/>
<path d="M3015 5535 c-38 -13 -118 -88 -199 -185 -74 -89 -236 -361 -236 -395
0 -4 21 -29 48 -54 214 -212 403 -507 496 -776 16 -44 32 -89 37 -100 8 -19
44 -156 54 -206 18 -89 35 -208 37 -261 1 -16 4 -28 7 -28 3 0 109 103 234
228 l229 229 7 64 c5 35 7 125 6 199 -2 122 -7 175 -20 250 -3 14 -7 41 -10
60 -3 19 -8 43 -11 52 -3 9 -7 25 -9 35 -45 220 -189 513 -348 707 -146 179
-216 218 -322 181z"/>
<path d="M2205 4695 c-5 -2 -23 -6 -38 -9 -78 -18 -288 -277 -398 -491 -77
-151 -147 -349 -164 -466 -4 -24 -8 -46 -10 -49 -18 -31 -28 -437 -13 -550 17
-123 56 -274 113 -430 42 -115 191 -374 256 -444 20 -20 21 -19 469 429 381
382 450 455 455 485 4 19 8 94 9 166 9 422 -130 832 -392 1154 -83 103 -144
165 -178 183 -30 15 -91 27 -109 22z"/>
<path d="M4879 4583 c-31 -4 -62 -31 -268 -237 -262 -263 -252 -239 -111 -251
36 -3 72 -8 80 -10 8 -2 31 -7 50 -10 19 -3 78 -17 130 -30 351 -88 698 -281
958 -531 48 -46 91 -84 96 -84 30 0 268 146 373 228 203 161 247 247 187 363
-28 55 -179 186 -319 278 -79 51 -256 144 -325 169 -233 86 -428 121 -665 119
-82 0 -166 -3 -186 -4z"/>
<path d="M4041 3729 l-54 -7 -229 -229 c-125 -125 -228 -231 -228 -234 0 -3
19 -7 43 -7 23 -1 51 -4 62 -6 11 -2 40 -7 65 -10 94 -14 309 -64 325 -76 6
-4 24 -10 40 -14 53 -12 187 -69 295 -124 204 -105 396 -246 549 -404 l45 -46
90 47 c83 42 204 116 216 132 3 3 12 10 21 15 54 30 225 187 244 224 45 87 27
161 -63 250 -37 36 -85 79 -107 95 -22 17 -46 35 -53 42 -33 31 -187 127 -277
171 -166 82 -328 135 -515 168 -103 18 -379 26 -469 13z"/>
<path d="M3257 2884 c-2 -2 -28 -4 -58 -5 l-54 -1 -455 -455 -455 -454 30 -25
c35 -29 159 -113 195 -133 65 -35 218 -111 225 -111 4 0 21 -6 38 -14 81 -36
285 -89 392 -101 33 -4 74 -9 90 -11 40 -5 303 -5 335 0 14 3 48 7 75 11 345
41 707 213 975 462 84 78 102 110 103 177 1 90 -41 142 -234 294 -238 187
-568 320 -884 357 -63 8 -312 14 -318 9z"/>
<path d="M858 1123 c-670 -672 -838 -845 -848 -876 -29 -91 15 -188 102 -230
40 -19 122 -16 163 6 17 9 403 389 859 846 l829 830 -130 130 c-72 72 -133
131 -135 131 -2 0 -380 -377 -840 -837z"/>
</g>
</svg>
